<?xml version="1.0" standalone="no"?>
<!DOCTYPE svg PUBLIC "-//W3C//DTD SVG 20010904//EN"
 "http://www.w3.org/TR/2001/REC-SVG-20010904/DTD/svg10.dtd">
<svg version="1.0" xmlns="http://www.w3.org/2000/svg"
 width="512.000000pt" height="512.000000pt" viewBox="0 0 512.000000 512.000000"
 preserveAspectRatio="xMidYMid meet">
<metadata>
Created by potrace 1.11, written by Peter Selinger 2001-2013
</metadata>
<g transform="translate(0.000000,512.000000) scale(0.100000,-0.100000)"
fill="#000000" stroke="none">
<path d="M565 3775 l-25 -24 0 -794 c0 -784 0 -793 20 -815 l21 -22 549 0 550
0 0 -359 c0 -369 4 -412 40 -431 12 -6 523 -10 1415 -10 l1396 0 24 25 25 24
0 793 c-1 692 -3 796 -16 813 -14 19 -30 20 -570 25 l-555 5 1 355 c0 368 -3
410 -40 430 -12 6 -523 10 -1415 10 l-1396 0 -24 -25z m2725 -820 l0 -695
-1300 0 -1300 0 0 695 0 695 1300 0 1300 0 0 -695z m1140 -790 l0 -695 -1300
0 -1300 0 2 323 3 322 63 3 62 3 0 -246 c0 -151 4 -254 10 -266 10 -19 34 -19
1158 -19 880 0 1151 3 1160 12 18 18 17 1113 0 1125 -7 4 -201 10 -432 13
l-419 5 1 53 c0 28 1 54 1 57 1 3 224 5 496 5 l495 0 0 -695z m-230 -5 l0
-480 -1070 0 -1070 0 0 220 0 220 530 0 530 0 0 -115 c0 -93 -3 -115 -14 -115
-22 0 -72 46 -86 80 -12 28 -16 30 -66 30 -54 0 -54 0 -48 -27 14 -61 52 -110
106 -137 28 -14 65 -26 80 -26 26 0 28 -3 28 -40 0 -39 1 -40 35 -40 34 0 35
1 35 40 0 35 3 40 23 40 38 0 123 46 147 80 41 57 45 110 15 205 -4 15 0 23
17 30 43 19 48 46 48 288 l0 227 380 0 380 0 0 -480z m-964 -79 c42 -26 60
-78 44 -126 -12 -37 -43 -65 -72 -65 -16 0 -18 11 -18 105 0 58 3 105 8 105 4
0 21 -9 38 -19z"/>
<path d="M830 3520 c-20 -20 -20 -33 -20 -564 0 -482 2 -546 16 -560 14 -14
133 -16 1163 -16 879 0 1150 3 1159 12 9 9 12 148 12 564 0 489 -2 554 -16
568 -14 14 -132 16 -1155 16 -1126 0 -1139 0 -1159 -20z m2228 -562 l-3 -473
-1067 -3 -1068 -2 0 475 0 475 1070 0 1070 0 -2 -472z"/>
<path d="M1978 3343 c-3 -34 -6 -38 -42 -45 -105 -22 -171 -129 -145 -234 15
-58 64 -107 133 -133 l51 -19 3 -116 c1 -64 0 -116 -3 -116 -32 0 -92 55 -100
91 -6 28 -9 29 -62 29 l-56 0 6 -36 c12 -76 75 -135 165 -156 51 -13 52 -13
52 -50 0 -36 2 -38 30 -38 28 0 30 2 30 39 0 37 2 39 37 46 124 23 191 119
169 240 -10 53 -66 108 -141 141 l-65 28 0 103 c0 56 4 104 9 107 16 10 69
-43 81 -79 11 -34 13 -35 66 -35 54 0 54 0 48 28 -19 81 -90 150 -171 167 -30
6 -33 10 -33 41 0 31 -3 34 -29 34 -27 0 -30 -3 -33 -37z m2 -218 c0 -70 -4
-105 -11 -105 -6 0 -26 15 -45 34 -53 53 -43 129 20 160 17 9 32 16 34 16 1 0
2 -47 2 -105z m143 -277 c42 -49 9 -149 -55 -164 l-28 -6 0 104 c0 58 3 108 7
111 8 9 52 -18 76 -45z"/>
</g>
</svg>
